# xmcd
#
# Track frame offsets:
#	150
#	17953
#	45938
#	63915
#	79463
#	98527
#	113648
#	132588
#	147887
#	165722
#	191363
#
# Disc length: 2746 seconds
#
# Revision: 0
# Processed by: cddbd v1.4PL0 Copyright (c) Steve Scherf et al.
# Submitted via: dBpowerAMP V4.0
#
DISCID=8c0ab80b
DTITLE=Charlie Love - So Happy I Could Cry
DYEAR=1998
DGENRE=Blues
TTITLE0=Western Union Man
TTITLE1=Long Distance Call
TTITLE2=She Put Me Out
TTITLE3=Refund
TTITLE4=Somebody Have Mercy
TTITLE5=The Blues Keeps Following Me
TTITLE6=I'm Leaving You
TTITLE7=I Called Your Mama
TTITLE8=Trouble
TTITLE9=Goin' Down To The Liquor Store
TTITLE10=So Happy I Could Cry
EXTD=
EXTT0=
EXTT1=
EXTT2=
EXTT3=
EXTT4=
EXTT5=
EXTT6=
EXTT7=
EXTT8=
EXTT9=
EXTT10=
PLAYORDER=
